<svg width="22" height="22" viewBox="0 0 22 22" fill="none" xmlns="http://www.w3.org/2000/svg">
<path d="M15.051 4.22133L15.9585 3.31384C16.7103 2.56205 17.9292 2.56205 18.6809 3.31384C19.4327 4.06563 19.4327 5.28452 18.6809 6.03631L17.7734 6.9438M15.051 4.22133L8.94657 10.3257C8.48136 10.791 8.15133 11.3738 7.99176 12.0121L7.32812 14.6667L9.9827 14.003C10.621 13.8435 11.2038 13.5134 11.6691 13.0482L17.7734 6.9438M15.051 4.22133L17.7734 6.9438" stroke="#316EED" stroke-width="1.375" stroke-linejoin="round"/>
<path d="M17.4166 12.3747C17.4166 15.3882 17.4166 16.8949 16.5843 17.9091C16.432 18.0948 16.2618 18.265 16.076 18.4173C15.0619 19.2497 13.5551 19.2497 10.5416 19.2497H10.0833C6.62636 19.2497 4.8979 19.2497 3.82396 18.1757C2.75003 17.1018 2.75 15.3733 2.75 11.9163V11.458C2.75 8.44448 2.75 6.93773 3.58228 5.92358C3.73466 5.73792 3.90491 5.56766 4.09057 5.41529C5.10472 4.58301 6.61148 4.58301 9.625 4.58301" stroke="#316EED" stroke-width="1.375" stroke-linecap="round" stroke-linejoin="round"/>
</svg>
